<?xml version="1.0" encoding="utf-8" standalone="no"?>
<!DOCTYPE svg PUBLIC "-//W3C//DTD SVG 1.1//EN"
  "http://www.w3.org/Graphics/SVG/1.1/DTD/svg11.dtd">
<svg xmlns:xlink="http://www.w3.org/1999/xlink" width="576pt" height="432pt" viewBox="0 0 576 432" xmlns="http://www.w3.org/2000/svg" version="1.1">
 <metadata>
  <rdf:RDF xmlns:dc="http://purl.org/dc/elements/1.1/" xmlns:cc="http://creativecommons.org/ns#" xmlns:rdf="http://www.w3.org/1999/02/22-rdf-syntax-ns#">
   <cc:Work>
    <dc:type rdf:resource="http://purl.org/dc/dcmitype/StillImage"/>
    <dc:date>2026-01-29T16:19:12.042719</dc:date>
    <dc:format>image/svg+xml</dc:format>
    <dc:creator>
     <cc:Agent>
      <dc:title>Matplotlib v3.8.0, https://matplotlib.org/</dc:title>
     </cc:Agent>
    </dc:creator>
   </cc:Work>
  </rdf:RDF>
 </metadata>
 <defs>
  <style type="text/css">*{stroke-linejoin: round; stroke-linecap: butt}</style>
 </defs>
 <g id="figure_1">
  <g id="patch_1">
   <path d="M 0 432 
L 576 432 
L 576 0 
L 0 0 
z
" style="fill: #ffffff"/>
  </g>
  <g id="axes_1">
   <g id="patch_2">
    <path d="M 97.85 389.68 
L 562.05 389.68 
L 562.05 26.88 
L 97.85 26.88 
z
" style="fill: #ffffff"/>
   </g>
   <g id="patch_3">
    <path d="M 97.85 373.189091 
L 126.983342 373.189091 
L 126.983342 359.863104 
L 97.85 359.863104 
z
" clip-path="url(#p2eb81c0be7)" style="fill: #1f77b4"/>
   </g>
   <g id="patch_4">
    <path d="M 97.85 356.531607 
L 128.062819 356.531607 
L 128.062819 343.20562 
L 97.85 343.20562 
z
" clip-path="url(#p2eb81c0be7)" style="fill: #1f77b4"/>
   </g>
   <g id="patch_5">
    <path d="M 97.85 339.874123 
L 134.499586 339.874123 
L 134.499586 326.548136 
L 97.85 326.548136 
z
" clip-path="url(#p2eb81c0be7)" style="fill: #1f77b4"/>
   </g>
   <g id="patch_6">
    <path d="M 97.85 323.216639 
L 134.734368 323.216639 
L 134.734368 309.890652 
L 97.85 309.890652 
z
" clip-path="url(#p2eb81c0be7)" style="fill: #1f77b4"/>
   </g>
   <g id="patch_7">
    <path d="M 97.85 306.559155 
L 136.348006 306.559155 
L 136.348006 293.233168 
L 97.85 293.233168 
z
" clip-path="url(#p2eb81c0be7)" style="fill: #1f77b4"/>
   </g>
   <g id="patch_8">
    <path d="M 97.85 289.901671 
L 139.149138 289.901671 
L 139.149138 276.575684 
L 97.85 276.575684 
z
" clip-path="url(#p2eb81c0be7)" style="fill: #1f77b4"/>
   </g>
   <g id="patch_9">
    <path d="M 97.85 273.244187 
L 139.887493 273.244187 
L 139.887493 259.9182 
L 97.85 259.9182 
z
" clip-path="url(#p2eb81c0be7)" style="fill: #1f77b4"/>
   </g>
   <g id="patch_10">
    <path d="M 97.85 256.586703 
L 140.375944 256.586703 
L 140.375944 243.260716 
L 97.85 243.260716 
z
" clip-path="url(#p2eb81c0be7)" style="fill: #1f77b4"/>
   </g>
   <g id="patch_11">
    <path d="M 97.85 239.929219 
L 143.092267 239.929219 
L 143.092267 226.603232 
L 97.85 226.603232 
z
" clip-path="url(#p2eb81c0be7)" style="fill: #1f77b4"/>
   </g>
   <g id="patch_12">
    <path d="M 97.85 223.271736 
L 145.922756 223.271736 
L 145.922756 209.945748 
L 97.85 209.945748 
z
" clip-path="url(#p2eb81c0be7)" style="fill: #1f77b4"/>
   </g>
   <g id="patch_13">
    <path d="M 97.85 206.614252 
L 153.661472 206.614252 
L 153.661472 193.288264 
L 97.85 193.288264 
z
" clip-path="url(#p2eb81c0be7)" style="fill: #1f77b4"/>
   </g>
   <g id="patch_14">
    <path d="M 97.85 189.956768 
L 154.969976 189.956768 
L 154.969976 176.630781 
L 97.85 176.630781 
z
" clip-path="url(#p2eb81c0be7)" style="fill: #1f77b4"/>
   </g>
   <g id="patch_15">
    <path d="M 97.85 173.299284 
L 157.210341 173.299284 
L 157.210341 159.973297 
L 97.85 159.973297 
z
" clip-path="url(#p2eb81c0be7)" style="fill: #1f77b4"/>
   </g>
   <g id="patch_16">
    <path d="M 97.85 156.6418 
L 159.593045 156.6418 
L 159.593045 143.315813 
L 97.85 143.315813 
z
" clip-path="url(#p2eb81c0be7)" style="fill: #1f77b4"/>
   </g>
   <g id="patch_17">
    <path d="M 97.85 139.984316 
L 164.071395 139.984316 
L 164.071395 126.658329 
L 97.85 126.658329 
z
" clip-path="url(#p2eb81c0be7)" style="fill: #1f77b4"/>
   </g>
   <g id="patch_18">
    <path d="M 97.85 123.326832 
L 165.742304 123.326832 
L 165.742304 110.000845 
L 97.85 110.000845 
z
" clip-path="url(#p2eb81c0be7)" style="fill: #1f77b4"/>
   </g>
   <g id="patch_19">
    <path d="M 97.85 106.669348 
L 176.152692 106.669348 
L 176.152692 93.343361 
L 97.85 93.343361 
z
" clip-path="url(#p2eb81c0be7)" style="fill: #1f77b4"/>
   </g>
   <g id="patch_20">
    <path d="M 97.85 90.011864 
L 176.893038 90.011864 
L 176.893038 76.685877 
L 97.85 76.685877 
z
" clip-path="url(#p2eb81c0be7)" style="fill: #1f77b4"/>
   </g>
   <g id="patch_21">
    <path d="M 97.85 73.35438 
L 178.767003 73.35438 
L 178.767003 60.028393 
L 97.85 60.028393 
z
" clip-path="url(#p2eb81c0be7)" style="fill: #1f77b4"/>
   </g>
   <g id="patch_22">
    <path d="M 97.85 56.696896 
L 252.59151 56.696896 
L 252.59151 43.370909 
L 97.85 43.370909 
z
" clip-path="url(#p2eb81c0be7)" style="fill: #1f77b4"/>
   </g>
   <g id="matplotlib.axis_1">
    <g id="xtick_1">
     <g id="line2d_1">
      <defs>
       <path id="m664f411161" d="M 0 0 
L 0 3.5 
" style="stroke: #000000; stroke-width: 0.8"/>
      </defs>
      <g>
       <use xlink:href="#m664f411161" x="97.85" y="389.68" style="stroke: #000000; stroke-width: 0.8"/>
      </g>
     </g>
     <g id="text_1">
      <!-- 0 -->
      <g transform="translate(94.66875 404.278437) scale(0.1 -0.1)">
       <defs>
        <path id="DejaVuSans-30" d="M 2034 4250 
Q 1547 4250 1301 3770 
Q 1056 3291 1056 2328 
Q 1056 1369 1301 889 
Q 1547 409 2034 409 
Q 2525 409 2770 889 
Q 3016 1369 3016 2328 
Q 3016 3291 2770 3770 
Q 2525 4250 2034 4250 
z
M 2034 4750 
Q 2819 4750 3233 4129 
Q 3647 3509 3647 2328 
Q 3647 1150 3233 529 
Q 2819 -91 2034 -91 
Q 1250 -91 836 529 
Q 422 1150 422 2328 
Q 422 3509 836 4129 
Q 1250 4750 2034 4750 
z
" transform="scale(0.015625)"/>
       </defs>
       <use xlink:href="#DejaVuSans-30"/>
      </g>
     </g>
    </g>
    <g id="xtick_2">
     <g id="line2d_2">
      <g>
       <use xlink:href="#m664f411161" x="164.164286" y="389.68" style="stroke: #000000; stroke-width: 0.8"/>
      </g>
     </g>
     <g id="text_2">
      <!-- 1 -->
      <g transform="translate(160.983036 404.278437) scale(0.1 -0.1)">
       <defs>
        <path id="DejaVuSans-31" d="M 794 531 
L 1825 531 
L 1825 4091 
L 703 3866 
L 703 4441 
L 1819 4666 
L 2450 4666 
L 2450 531 
L 3481 531 
L 3481 0 
L 794 0 
L 794 531 
z
" transform="scale(0.015625)"/>
       </defs>
       <use xlink:href="#DejaVuSans-31"/>
      </g>
     </g>
    </g>
    <g id="xtick_3">
     <g id="line2d_3">
      <g>
       <use xlink:href="#m664f411161" x="230.478571" y="389.68" style="stroke: #000000; stroke-width: 0.8"/>
      </g>
     </g>
     <g id="text_3">
      <!-- 2 -->
      <g transform="translate(227.297321 404.278437) scale(0.1 -0.1)">
       <defs>
        <path id="DejaVuSans-32" d="M 1228 531 
L 3431 531 
L 3431 0 
L 469 0 
L 469 531 
Q 828 903 1448 1529 
Q 2069 2156 2228 2338 
Q 2531 2678 2651 2914 
Q 2772 3150 2772 3378 
Q 2772 3750 2511 3984 
Q 2250 4219 1831 4219 
Q 1534 4219 1204 4116 
Q 875 4013 500 3803 
L 500 4441 
Q 881 4594 1212 4672 
Q 1544 4750 1819 4750 
Q 2544 4750 2975 4387 
Q 3406 4025 3406 3419 
Q 3406 3131 3298 2873 
Q 3191 2616 2906 2266 
Q 2828 2175 2409 1742 
Q 1991 1309 1228 531 
z
" transform="scale(0.015625)"/>
       </defs>
       <use xlink:href="#DejaVuSans-32"/>
      </g>
     </g>
    </g>
    <g id="xtick_4">
     <g id="line2d_4">
      <g>
       <use xlink:href="#m664f411161" x="296.792857" y="389.68" style="stroke: #000000; stroke-width: 0.8"/>
      </g>
     </g>
     <g id="text_4">
      <!-- 3 -->
      <g transform="translate(293.611607 404.278437) scale(0.1 -0.1)">
       <defs>
        <path id="DejaVuSans-33" d="M 2597 2516 
Q 3050 2419 3304 2112 
Q 3559 1806 3559 1356 
Q 3559 666 3084 287 
Q 2609 -91 1734 -91 
Q 1441 -91 1130 -33 
Q 819 25 488 141 
L 488 750 
Q 750 597 1062 519 
Q 1375 441 1716 441 
Q 2309 441 2620 675 
Q 2931 909 2931 1356 
Q 2931 1769 2642 2001 
Q 2353 2234 1838 2234 
L 1294 2234 
L 1294 2753 
L 1863 2753 
Q 2328 2753 2575 2939 
Q 2822 3125 2822 3475 
Q 2822 3834 2567 4026 
Q 2313 4219 1838 4219 
Q 1578 4219 1281 4162 
Q 984 4106 628 3988 
L 628 4550 
Q 988 4650 1302 4700 
Q 1616 4750 1894 4750 
Q 2613 4750 3031 4423 
Q 3450 4097 3450 3541 
Q 3450 3153 3228 2886 
Q 3006 2619 2597 2516 
z
" transform="scale(0.015625)"/>
       </defs>
       <use xlink:href="#DejaVuSans-33"/>
      </g>
     </g>
    </g>
    <g id="xtick_5">
     <g id="line2d_5">
      <g>
       <use xlink:href="#m664f411161" x="363.107143" y="389.68" style="stroke: #000000; stroke-width: 0.8"/>
      </g>
     </g>
     <g id="text_5">
      <!-- 4 -->
      <g transform="translate(359.925893 404.278437) scale(0.1 -0.1)">
       <defs>
        <path id="DejaVuSans-34" d="M 2419 4116 
L 825 1625 
L 2419 1625 
L 2419 4116 
z
M 2253 4666 
L 3047 4666 
L 3047 1625 
L 3713 1625 
L 3713 1100 
L 3047 1100 
L 3047 0 
L 2419 0 
L 2419 1100 
L 313 1100 
L 313 1709 
L 2253 4666 
z
" transform="scale(0.015625)"/>
       </defs>
       <use xlink:href="#DejaVuSans-34"/>
      </g>
     </g>
    </g>
    <g id="xtick_6">
     <g id="line2d_6">
      <g>
       <use xlink:href="#m664f411161" x="429.421429" y="389.68" style="stroke: #000000; stroke-width: 0.8"/>
      </g>
     </g>
     <g id="text_6">
      <!-- 5 -->
      <g transform="translate(426.240179 404.278437) scale(0.1 -0.1)">
       <defs>
        <path id="DejaVuSans-35" d="M 691 4666 
L 3169 4666 
L 3169 4134 
L 1269 4134 
L 1269 2991 
Q 1406 3038 1543 3061 
Q 1681 3084 1819 3084 
Q 2600 3084 3056 2656 
Q 3513 2228 3513 1497 
Q 3513 744 3044 326 
Q 2575 -91 1722 -91 
Q 1428 -91 1123 -41 
Q 819 9 494 109 
L 494 744 
Q 775 591 1075 516 
Q 1375 441 1709 441 
Q 2250 441 2565 725 
Q 2881 1009 2881 1497 
Q 2881 1984 2565 2268 
Q 2250 2553 1709 2553 
Q 1456 2553 1204 2497 
Q 953 2441 691 2322 
L 691 4666 
z
" transform="scale(0.015625)"/>
       </defs>
       <use xlink:href="#DejaVuSans-35"/>
      </g>
     </g>
    </g>
    <g id="xtick_7">
     <g id="line2d_7">
      <g>
       <use xlink:href="#m664f411161" x="495.735714" y="389.68" style="stroke: #000000; stroke-width: 0.8"/>
      </g>
     </g>
     <g id="text_7">
      <!-- 6 -->
      <g transform="translate(492.554464 404.278437) scale(0.1 -0.1)">
       <defs>
        <path id="DejaVuSans-36" d="M 2113 2584 
Q 1688 2584 1439 2293 
Q 1191 2003 1191 1497 
Q 1191 994 1439 701 
Q 1688 409 2113 409 
Q 2538 409 2786 701 
Q 3034 994 3034 1497 
Q 3034 2003 2786 2293 
Q 2538 2584 2113 2584 
z
M 3366 4563 
L 3366 3988 
Q 3128 4100 2886 4159 
Q 2644 4219 2406 4219 
Q 1781 4219 1451 3797 
Q 1122 3375 1075 2522 
Q 1259 2794 1537 2939 
Q 1816 3084 2150 3084 
Q 2853 3084 3261 2657 
Q 3669 2231 3669 1497 
Q 3669 778 3244 343 
Q 2819 -91 2113 -91 
Q 1303 -91 875 529 
Q 447 1150 447 2328 
Q 447 3434 972 4092 
Q 1497 4750 2381 4750 
Q 2619 4750 2861 4703 
Q 3103 4656 3366 4563 
z
" transform="scale(0.015625)"/>
       </defs>
       <use xlink:href="#DejaVuSans-36"/>
      </g>
     </g>
    </g>
    <g id="xtick_8">
     <g id="line2d_8">
      <g>
       <use xlink:href="#m664f411161" x="562.05" y="389.68" style="stroke: #000000; stroke-width: 0.8"/>
      </g>
     </g>
     <g id="text_8">
      <!-- 7 -->
      <g transform="translate(558.86875 404.278437) scale(0.1 -0.1)">
       <defs>
        <path id="DejaVuSans-37" d="M 525 4666 
L 3525 4666 
L 3525 4397 
L 1831 0 
L 1172 0 
L 2766 4134 
L 525 4134 
L 525 4666 
z
" transform="scale(0.015625)"/>
       </defs>
       <use xlink:href="#DejaVuSans-37"/>
      </g>
     </g>
    </g>
    <g id="text_9">
     <!-- Aggregated |IG| -->
     <g transform="translate(290.405469 418.000312) scale(0.1 -0.1)">
      <defs>
       <path id="DejaVuSans-41" d="M 2188 4044 
L 1331 1722 
L 3047 1722 
L 2188 4044 
z
M 1831 4666 
L 2547 4666 
L 4325 0 
L 3669 0 
L 3244 1197 
L 1141 1197 
L 716 0 
L 50 0 
L 1831 4666 
z
" transform="scale(0.015625)"/>
       <path id="DejaVuSans-67" d="M 2906 1791 
Q 2906 2416 2648 2759 
Q 2391 3103 1925 3103 
Q 1463 3103 1205 2759 
Q 947 2416 947 1791 
Q 947 1169 1205 825 
Q 1463 481 1925 481 
Q 2391 481 2648 825 
Q 2906 1169 2906 1791 
z
M 3481 434 
Q 3481 -459 3084 -895 
Q 2688 -1331 1869 -1331 
Q 1566 -1331 1297 -1286 
Q 1028 -1241 775 -1147 
L 775 -588 
Q 1028 -725 1275 -790 
Q 1522 -856 1778 -856 
Q 2344 -856 2625 -561 
Q 2906 -266 2906 331 
L 2906 616 
Q 2728 306 2450 153 
Q 2172 0 1784 0 
Q 1141 0 747 490 
Q 353 981 353 1791 
Q 353 2603 747 3093 
Q 1141 3584 1784 3584 
Q 2172 3584 2450 3431 
Q 2728 3278 2906 2969 
L 2906 3500 
L 3481 3500 
L 3481 434 
z
" transform="scale(0.015625)"/>
       <path id="DejaVuSans-72" d="M 2631 2963 
Q 2534 3019 2420 3045 
Q 2306 3072 2169 3072 
Q 1681 3072 1420 2755 
Q 1159 2438 1159 1844 
L 1159 0 
L 581 0 
L 581 3500 
L 1159 3500 
L 1159 2956 
Q 1341 3275 1631 3429 
Q 1922 3584 2338 3584 
Q 2397 3584 2469 3576 
Q 2541 3569 2628 3553 
L 2631 2963 
z
" transform="scale(0.015625)"/>
       <path id="DejaVuSans-65" d="M 3597 1894 
L 3597 1613 
L 953 1613 
Q 991 1019 1311 708 
Q 1631 397 2203 397 
Q 2534 397 2845 478 
Q 3156 559 3463 722 
L 3463 178 
Q 3153 47 2828 -22 
Q 2503 -91 2169 -91 
Q 1331 -91 842 396 
Q 353 884 353 1716 
Q 353 2575 817 3079 
Q 1281 3584 2069 3584 
Q 2775 3584 3186 3129 
Q 3597 2675 3597 1894 
z
M 3022 2063 
Q 3016 2534 2758 2815 
Q 2500 3097 2075 3097 
Q 1594 3097 1305 2825 
Q 1016 2553 972 2059 
L 3022 2063 
z
" transform="scale(0.015625)"/>
       <path id="DejaVuSans-61" d="M 2194 1759 
Q 1497 1759 1228 1600 
Q 959 1441 959 1056 
Q 959 750 1161 570 
Q 1363 391 1709 391 
Q 2188 391 2477 730 
Q 2766 1069 2766 1631 
L 2766 1759 
L 2194 1759 
z
M 3341 1997 
L 3341 0 
L 2766 0 
L 2766 531 
Q 2569 213 2275 61 
Q 1981 -91 1556 -91 
Q 1019 -91 701 211 
Q 384 513 384 1019 
Q 384 1609 779 1909 
Q 1175 2209 1959 2209 
L 2766 2209 
L 2766 2266 
Q 2766 2663 2505 2880 
Q 2244 3097 1772 3097 
Q 1472 3097 1187 3025 
Q 903 2953 641 2809 
L 641 3341 
Q 956 3463 1253 3523 
Q 1550 3584 1831 3584 
Q 2591 3584 2966 3190 
Q 3341 2797 3341 1997 
z
" transform="scale(0.015625)"/>
       <path id="DejaVuSans-74" d="M 1172 4494 
L 1172 3500 
L 2356 3500 
L 2356 3053 
L 1172 3053 
L 1172 1153 
Q 1172 725 1289 603 
Q 1406 481 1766 481 
L 2356 481 
L 2356 0 
L 1766 0 
Q 1100 0 847 248 
Q 594 497 594 1153 
L 594 3053 
L 172 3053 
L 172 3500 
L 594 3500 
L 594 4494 
L 1172 4494 
z
" transform="scale(0.015625)"/>
       <path id="DejaVuSans-64" d="M 2906 2969 
L 2906 4863 
L 3481 4863 
L 3481 0 
L 2906 0 
L 2906 525 
Q 2725 213 2448 61 
Q 2172 -91 1784 -91 
Q 1150 -91 751 415 
Q 353 922 353 1747 
Q 353 2572 751 3078 
Q 1150 3584 1784 3584 
Q 2172 3584 2448 3432 
Q 2725 3281 2906 2969 
z
M 947 1747 
Q 947 1113 1208 752 
Q 1469 391 1925 391 
Q 2381 391 2643 752 
Q 2906 1113 2906 1747 
Q 2906 2381 2643 2742 
Q 2381 3103 1925 3103 
Q 1469 3103 1208 2742 
Q 947 2381 947 1747 
z
" transform="scale(0.015625)"/>
       <path id="DejaVuSans-20" transform="scale(0.015625)"/>
       <path id="DejaVuSans-7c" d="M 1344 4891 
L 1344 -1509 
L 813 -1509 
L 813 4891 
L 1344 4891 
z
" transform="scale(0.015625)"/>
       <path id="DejaVuSans-49" d="M 628 4666 
L 1259 4666 
L 1259 0 
L 628 0 
L 628 4666 
z
" transform="scale(0.015625)"/>
       <path id="DejaVuSans-47" d="M 3809 666 
L 3809 1919 
L 2778 1919 
L 2778 2438 
L 4434 2438 
L 4434 434 
Q 4069 175 3628 42 
Q 3188 -91 2688 -91 
Q 1594 -91 976 548 
Q 359 1188 359 2328 
Q 359 3472 976 4111 
Q 1594 4750 2688 4750 
Q 3144 4750 3555 4637 
Q 3966 4525 4313 4306 
L 4313 3634 
Q 3963 3931 3569 4081 
Q 3175 4231 2741 4231 
Q 1884 4231 1454 3753 
Q 1025 3275 1025 2328 
Q 1025 1384 1454 906 
Q 1884 428 2741 428 
Q 3075 428 3337 486 
Q 3600 544 3809 666 
z
" transform="scale(0.015625)"/>
      </defs>
      <use xlink:href="#DejaVuSans-41"/>
      <use xlink:href="#DejaVuSans-67" x="68.408203"/>
      <use xlink:href="#DejaVuSans-67" x="131.884766"/>
      <use xlink:href="#DejaVuSans-72" x="195.361328"/>
      <use xlink:href="#DejaVuSans-65" x="234.224609"/>
      <use xlink:href="#DejaVuSans-67" x="295.748047"/>
      <use xlink:href="#DejaVuSans-61" x="359.224609"/>
      <use xlink:href="#DejaVuSans-74" x="420.503906"/>
      <use xlink:href="#DejaVuSans-65" x="459.712891"/>
      <use xlink:href="#DejaVuSans-64" x="521.236328"/>
      <use xlink:href="#DejaVuSans-20" x="584.712891"/>
      <use xlink:href="#DejaVuSans-7c" x="616.5"/>
      <use xlink:href="#DejaVuSans-49" x="650.191406"/>
      <use xlink:href="#DejaVuSans-47" x="679.683594"/>
      <use xlink:href="#DejaVuSans-7c" x="757.173828"/>
     </g>
    </g>
   </g>
   <g id="matplotlib.axis_2">
    <g id="ytick_1">
     <g id="line2d_9">
      <defs>
       <path id="m9232d9afa2" d="M 0 0 
L -3.5 0 
" style="stroke: #000000; stroke-width: 0.8"/>
      </defs>
      <g>
       <use xlink:href="#m9232d9afa2" x="97.85" y="366.526097" style="stroke: #000000; stroke-width: 0.8"/>
      </g>
     </g>
     <g id="text_10">
      <!-- records -->
      <g transform="translate(53.7 370.325316) scale(0.1 -0.1)">
       <defs>
        <path id="DejaVuSans-63" d="M 3122 3366 
L 3122 2828 
Q 2878 2963 2633 3030 
Q 2388 3097 2138 3097 
Q 1578 3097 1268 2742 
Q 959 2388 959 1747 
Q 959 1106 1268 751 
Q 1578 397 2138 397 
Q 2388 397 2633 464 
Q 2878 531 3122 666 
L 3122 134 
Q 2881 22 2623 -34 
Q 2366 -91 2075 -91 
Q 1284 -91 818 406 
Q 353 903 353 1747 
Q 353 2603 823 3093 
Q 1294 3584 2113 3584 
Q 2378 3584 2631 3529 
Q 2884 3475 3122 3366 
z
" transform="scale(0.015625)"/>
        <path id="DejaVuSans-6f" d="M 1959 3097 
Q 1497 3097 1228 2736 
Q 959 2375 959 1747 
Q 959 1119 1226 758 
Q 1494 397 1959 397 
Q 2419 397 2687 759 
Q 2956 1122 2956 1747 
Q 2956 2369 2687 2733 
Q 2419 3097 1959 3097 
z
M 1959 3584 
Q 2709 3584 3137 3096 
Q 3566 2609 3566 1747 
Q 3566 888 3137 398 
Q 2709 -91 1959 -91 
Q 1206 -91 779 398 
Q 353 888 353 1747 
Q 353 2609 779 3096 
Q 1206 3584 1959 3584 
z
" transform="scale(0.015625)"/>
        <path id="DejaVuSans-73" d="M 2834 3397 
L 2834 2853 
Q 2591 2978 2328 3040 
Q 2066 3103 1784 3103 
Q 1356 3103 1142 2972 
Q 928 2841 928 2578 
Q 928 2378 1081 2264 
Q 1234 2150 1697 2047 
L 1894 2003 
Q 2506 1872 2764 1633 
Q 3022 1394 3022 966 
Q 3022 478 2636 193 
Q 2250 -91 1575 -91 
Q 1294 -91 989 -36 
Q 684 19 347 128 
L 347 722 
Q 666 556 975 473 
Q 1284 391 1588 391 
Q 1994 391 2212 530 
Q 2431 669 2431 922 
Q 2431 1156 2273 1281 
Q 2116 1406 1581 1522 
L 1381 1569 
Q 847 1681 609 1914 
Q 372 2147 372 2553 
Q 372 3047 722 3315 
Q 1072 3584 1716 3584 
Q 2034 3584 2315 3537 
Q 2597 3491 2834 3397 
z
" transform="scale(0.015625)"/>
       </defs>
       <use xlink:href="#DejaVuSans-72"/>
       <use xlink:href="#DejaVuSans-65" x="38.863281"/>
       <use xlink:href="#DejaVuSans-63" x="100.386719"/>
       <use xlink:href="#DejaVuSans-6f" x="155.367188"/>
       <use xlink:href="#DejaVuSans-72" x="216.548828"/>
       <use xlink:href="#DejaVuSans-64" x="255.912109"/>
       <use xlink:href="#DejaVuSans-73" x="319.388672"/>
      </g>
     </g>
    </g>
    <g id="ytick_2">
     <g id="line2d_10">
      <g>
       <use xlink:href="#m9232d9afa2" x="97.85" y="349.868613" style="stroke: #000000; stroke-width: 0.8"/>
      </g>
     </g>
     <g id="text_11">
      <!-- development -->
      <g transform="translate(24.879688 353.667832) scale(0.1 -0.1)">
       <defs>
        <path id="DejaVuSans-76" d="M 191 3500 
L 800 3500 
L 1894 563 
L 2988 3500 
L 3597 3500 
L 2284 0 
L 1503 0 
L 191 3500 
z
" transform="scale(0.015625)"/>
        <path id="DejaVuSans-6c" d="M 603 4863 
L 1178 4863 
L 1178 0 
L 603 0 
L 603 4863 
z
" transform="scale(0.015625)"/>
        <path id="DejaVuSans-70" d="M 1159 525 
L 1159 -1331 
L 581 -1331 
L 581 3500 
L 1159 3500 
L 1159 2969 
Q 1341 3281 1617 3432 
Q 1894 3584 2278 3584 
Q 2916 3584 3314 3078 
Q 3713 2572 3713 1747 
Q 3713 922 3314 415 
Q 2916 -91 2278 -91 
Q 1894 -91 1617 61 
Q 1341 213 1159 525 
z
M 3116 1747 
Q 3116 2381 2855 2742 
Q 2594 3103 2138 3103 
Q 1681 3103 1420 2742 
Q 1159 2381 1159 1747 
Q 1159 1113 1420 752 
Q 1681 391 2138 391 
Q 2594 391 2855 752 
Q 3116 1113 3116 1747 
z
" transform="scale(0.015625)"/>
        <path id="DejaVuSans-6d" d="M 3328 2828 
Q 3544 3216 3844 3400 
Q 4144 3584 4550 3584 
Q 5097 3584 5394 3201 
Q 5691 2819 5691 2113 
L 5691 0 
L 5113 0 
L 5113 2094 
Q 5113 2597 4934 2840 
Q 4756 3084 4391 3084 
Q 3944 3084 3684 2787 
Q 3425 2491 3425 1978 
L 3425 0 
L 2847 0 
L 2847 2094 
Q 2847 2600 2669 2842 
Q 2491 3084 2119 3084 
Q 1678 3084 1418 2786 
Q 1159 2488 1159 1978 
L 1159 0 
L 581 0 
L 581 3500 
L 1159 3500 
L 1159 2956 
Q 1356 3278 1631 3431 
Q 1906 3584 2284 3584 
Q 2666 3584 2933 3390 
Q 3200 3197 3328 2828 
z
" transform="scale(0.015625)"/>
        <path id="DejaVuSans-6e" d="M 3513 2113 
L 3513 0 
L 2938 0 
L 2938 2094 
Q 2938 2591 2744 2837 
Q 2550 3084 2163 3084 
Q 1697 3084 1428 2787 
Q 1159 2491 1159 1978 
L 1159 0 
L 581 0 
L 581 3500 
L 1159 3500 
L 1159 2956 
Q 1366 3272 1645 3428 
Q 1925 3584 2291 3584 
Q 2894 3584 3203 3211 
Q 3513 2838 3513 2113 
z
" transform="scale(0.015625)"/>
       </defs>
       <use xlink:href="#DejaVuSans-64"/>
       <use xlink:href="#DejaVuSans-65" x="63.476562"/>
       <use xlink:href="#DejaVuSans-76" x="125"/>
       <use xlink:href="#DejaVuSans-65" x="184.179688"/>
       <use xlink:href="#DejaVuSans-6c" x="245.703125"/>
       <use xlink:href="#DejaVuSans-6f" x="273.486328"/>
       <use xlink:href="#DejaVuSans-70" x="334.667969"/>
       <use xlink:href="#DejaVuSans-6d" x="398.144531"/>
       <use xlink:href="#DejaVuSans-65" x="495.556641"/>
       <use xlink:href="#DejaVuSans-6e" x="557.080078"/>
       <use xlink:href="#DejaVuSans-74" x="620.458984"/>
      </g>
     </g>
    </g>
    <g id="ytick_3">
     <g id="line2d_11">
      <g>
       <use xlink:href="#m9232d9afa2" x="97.85" y="333.211129" style="stroke: #000000; stroke-width: 0.8"/>
      </g>
     </g>
     <g id="text_12">
      <!-- book -->
      <g transform="translate(66.473438 337.010348) scale(0.1 -0.1)">
       <defs>
        <path id="DejaVuSans-62" d="M 3116 1747 
Q 3116 2381 2855 2742 
Q 2594 3103 2138 3103 
Q 1681 3103 1420 2742 
Q 1159 2381 1159 1747 
Q 1159 1113 1420 752 
Q 1681 391 2138 391 
Q 2594 391 2855 752 
Q 3116 1113 3116 1747 
z
M 1159 2969 
Q 1341 3281 1617 3432 
Q 1894 3584 2278 3584 
Q 2916 3584 3314 3078 
Q 3713 2572 3713 1747 
Q 3713 922 3314 415 
Q 2916 -91 2278 -91 
Q 1894 -91 1617 61 
Q 1341 213 1159 525 
L 1159 0 
L 581 0 
L 581 4863 
L 1159 4863 
L 1159 2969 
z
" transform="scale(0.015625)"/>
        <path id="DejaVuSans-6b" d="M 581 4863 
L 1159 4863 
L 1159 1991 
L 2875 3500 
L 3609 3500 
L 1753 1863 
L 3688 0 
L 2938 0 
L 1159 1709 
L 1159 0 
L 581 0 
L 581 4863 
z
" transform="scale(0.015625)"/>
       </defs>
       <use xlink:href="#DejaVuSans-62"/>
       <use xlink:href="#DejaVuSans-6f" x="63.476562"/>
       <use xlink:href="#DejaVuSans-6f" x="124.658203"/>
       <use xlink:href="#DejaVuSans-6b" x="185.839844"/>
      </g>
     </g>
    </g>
    <g id="ytick_4">
     <g id="line2d_12">
      <g>
       <use xlink:href="#m9232d9afa2" x="97.85" y="316.553646" style="stroke: #000000; stroke-width: 0.8"/>
      </g>
     </g>
     <g id="text_13">
      <!-- team -->
      <g transform="translate(64.907813 320.352864) scale(0.1 -0.1)">
       <use xlink:href="#DejaVuSans-74"/>
       <use xlink:href="#DejaVuSans-65" x="39.208984"/>
       <use xlink:href="#DejaVuSans-61" x="100.732422"/>
       <use xlink:href="#DejaVuSans-6d" x="162.011719"/>
      </g>
     </g>
    </g>
    <g id="ytick_5">
     <g id="line2d_13">
      <g>
       <use xlink:href="#m9232d9afa2" x="97.85" y="299.896162" style="stroke: #000000; stroke-width: 0.8"/>
      </g>
     </g>
     <g id="text_14">
      <!-- item -->
      <g transform="translate(68.257812 303.69538) scale(0.1 -0.1)">
       <defs>
        <path id="DejaVuSans-69" d="M 603 3500 
L 1178 3500 
L 1178 0 
L 603 0 
L 603 3500 
z
M 603 4863 
L 1178 4863 
L 1178 4134 
L 603 4134 
L 603 4863 
z
" transform="scale(0.015625)"/>
       </defs>
       <use xlink:href="#DejaVuSans-69"/>
       <use xlink:href="#DejaVuSans-74" x="27.783203"/>
       <use xlink:href="#DejaVuSans-65" x="66.992188"/>
       <use xlink:href="#DejaVuSans-6d" x="128.515625"/>
      </g>
     </g>
    </g>
    <g id="ytick_6">
     <g id="line2d_14">
      <g>
       <use xlink:href="#m9232d9afa2" x="97.85" y="283.238678" style="stroke: #000000; stroke-width: 0.8"/>
      </g>
     </g>
     <g id="text_15">
      <!-- standards -->
      <g transform="translate(41.284375 287.037896) scale(0.1 -0.1)">
       <use xlink:href="#DejaVuSans-73"/>
       <use xlink:href="#DejaVuSans-74" x="52.099609"/>
       <use xlink:href="#DejaVuSans-61" x="91.308594"/>
       <use xlink:href="#DejaVuSans-6e" x="152.587891"/>
       <use xlink:href="#DejaVuSans-64" x="215.966797"/>
       <use xlink:href="#DejaVuSans-61" x="279.443359"/>
       <use xlink:href="#DejaVuSans-72" x="340.722656"/>
       <use xlink:href="#DejaVuSans-64" x="380.085938"/>
       <use xlink:href="#DejaVuSans-73" x="443.5625"/>
      </g>
     </g>
    </g>
    <g id="ytick_7">
     <g id="line2d_15">
      <g>
       <use xlink:href="#m9232d9afa2" x="97.85" y="266.581194" style="stroke: #000000; stroke-width: 0.8"/>
      </g>
     </g>
     <g id="text_16">
      <!-- stock -->
      <g transform="translate(64.3125 270.380413) scale(0.1 -0.1)">
       <use xlink:href="#DejaVuSans-73"/>
       <use xlink:href="#DejaVuSans-74" x="52.099609"/>
       <use xlink:href="#DejaVuSans-6f" x="91.308594"/>
       <use xlink:href="#DejaVuSans-63" x="152.490234"/>
       <use xlink:href="#DejaVuSans-6b" x="207.470703"/>
      </g>
     </g>
    </g>
    <g id="ytick_8">
     <g id="line2d_16">
      <g>
       <use xlink:href="#m9232d9afa2" x="97.85" y="249.92371" style="stroke: #000000; stroke-width: 0.8"/>
      </g>
     </g>
     <g id="text_17">
      <!-- spotted -->
      <g transform="translate(52.83125 253.722929) scale(0.1 -0.1)">
       <use xlink:href="#DejaVuSans-73"/>
       <use xlink:href="#DejaVuSans-70" x="52.099609"/>
       <use xlink:href="#DejaVuSans-6f" x="115.576172"/>
       <use xlink:href="#DejaVuSans-74" x="176.757812"/>
       <use xlink:href="#DejaVuSans-74" x="215.966797"/>
       <use xlink:href="#DejaVuSans-65" x="255.175781"/>
       <use xlink:href="#DejaVuSans-64" x="316.699219"/>
      </g>
     </g>
    </g>
    <g id="ytick_9">
     <g id="line2d_17">
      <g>
       <use xlink:href="#m9232d9afa2" x="97.85" y="233.266226" style="stroke: #000000; stroke-width: 0.8"/>
      </g>
     </g>
     <g id="text_18">
      <!-- payment -->
      <g transform="translate(46.303125 237.065445) scale(0.1 -0.1)">
       <defs>
        <path id="DejaVuSans-79" d="M 2059 -325 
Q 1816 -950 1584 -1140 
Q 1353 -1331 966 -1331 
L 506 -1331 
L 506 -850 
L 844 -850 
Q 1081 -850 1212 -737 
Q 1344 -625 1503 -206 
L 1606 56 
L 191 3500 
L 800 3500 
L 1894 763 
L 2988 3500 
L 3597 3500 
L 2059 -325 
z
" transform="scale(0.015625)"/>
       </defs>
       <use xlink:href="#DejaVuSans-70"/>
       <use xlink:href="#DejaVuSans-61" x="63.476562"/>
       <use xlink:href="#DejaVuSans-79" x="124.755859"/>
       <use xlink:href="#DejaVuSans-6d" x="183.935547"/>
       <use xlink:href="#DejaVuSans-65" x="281.347656"/>
       <use xlink:href="#DejaVuSans-6e" x="342.871094"/>
       <use xlink:href="#DejaVuSans-74" x="406.25"/>
      </g>
     </g>
    </g>
    <g id="ytick_10">
     <g id="line2d_18">
      <g>
       <use xlink:href="#m9232d9afa2" x="97.85" y="216.608742" style="stroke: #000000; stroke-width: 0.8"/>
      </g>
     </g>
     <g id="text_19">
      <!-- materials -->
      <g transform="translate(43.903125 220.407961) scale(0.1 -0.1)">
       <use xlink:href="#DejaVuSans-6d"/>
       <use xlink:href="#DejaVuSans-61" x="97.412109"/>
       <use xlink:href="#DejaVuSans-74" x="158.691406"/>
       <use xlink:href="#DejaVuSans-65" x="197.900391"/>
       <use xlink:href="#DejaVuSans-72" x="259.423828"/>
       <use xlink:href="#DejaVuSans-69" x="300.537109"/>
       <use xlink:href="#DejaVuSans-61" x="328.320312"/>
       <use xlink:href="#DejaVuSans-6c" x="389.599609"/>
       <use xlink:href="#DejaVuSans-73" x="417.382812"/>
      </g>
     </g>
    </g>
    <g id="ytick_11">
     <g id="line2d_19">
      <g>
       <use xlink:href="#m9232d9afa2" x="97.85" y="199.951258" style="stroke: #000000; stroke-width: 0.8"/>
      </g>
     </g>
     <g id="text_20">
      <!-- production -->
      <g transform="translate(37.157813 203.750477) scale(0.1 -0.1)">
       <defs>
        <path id="DejaVuSans-75" d="M 544 1381 
L 544 3500 
L 1119 3500 
L 1119 1403 
Q 1119 906 1312 657 
Q 1506 409 1894 409 
Q 2359 409 2629 706 
Q 2900 1003 2900 1516 
L 2900 3500 
L 3475 3500 
L 3475 0 
L 2900 0 
L 2900 538 
Q 2691 219 2414 64 
Q 2138 -91 1772 -91 
Q 1169 -91 856 284 
Q 544 659 544 1381 
z
M 1991 3584 
L 1991 3584 
z
" transform="scale(0.015625)"/>
       </defs>
       <use xlink:href="#DejaVuSans-70"/>
       <use xlink:href="#DejaVuSans-72" x="63.476562"/>
       <use xlink:href="#DejaVuSans-6f" x="102.339844"/>
       <use xlink:href="#DejaVuSans-64" x="163.521484"/>
       <use xlink:href="#DejaVuSans-75" x="226.998047"/>
       <use xlink:href="#DejaVuSans-63" x="290.376953"/>
       <use xlink:href="#DejaVuSans-74" x="345.357422"/>
       <use xlink:href="#DejaVuSans-69" x="384.566406"/>
       <use xlink:href="#DejaVuSans-6f" x="412.349609"/>
       <use xlink:href="#DejaVuSans-6e" x="473.53125"/>
      </g>
     </g>
    </g>
    <g id="ytick_12">
     <g id="line2d_20">
      <g>
       <use xlink:href="#m9232d9afa2" x="97.85" y="183.293774" style="stroke: #000000; stroke-width: 0.8"/>
      </g>
     </g>
     <g id="text_21">
      <!-- client -->
      <g transform="translate(63.384375 187.092993) scale(0.1 -0.1)">
       <use xlink:href="#DejaVuSans-63"/>
       <use xlink:href="#DejaVuSans-6c" x="54.980469"/>
       <use xlink:href="#DejaVuSans-69" x="82.763672"/>
       <use xlink:href="#DejaVuSans-65" x="110.546875"/>
       <use xlink:href="#DejaVuSans-6e" x="172.070312"/>
       <use xlink:href="#DejaVuSans-74" x="235.449219"/>
      </g>
     </g>
    </g>
    <g id="ytick_13">
     <g id="line2d_21">
      <g>
       <use xlink:href="#m9232d9afa2" x="97.85" y="166.63629" style="stroke: #000000; stroke-width: 0.8"/>
      </g>
     </g>
     <g id="text_22">
      <!-- department -->
      <g transform="translate(31.689063 170.435509) scale(0.1 -0.1)">
       <use xlink:href="#DejaVuSans-64"/>
       <use xlink:href="#DejaVuSans-65" x="63.476562"/>
       <use xlink:href="#DejaVuSans-70" x="125"/>
       <use xlink:href="#DejaVuSans-61" x="188.476562"/>
       <use xlink:href="#DejaVuSans-72" x="249.755859"/>
       <use xlink:href="#DejaVuSans-74" x="290.869141"/>
       <use xlink:href="#DejaVuSans-6d" x="330.078125"/>
       <use xlink:href="#DejaVuSans-65" x="427.490234"/>
       <use xlink:href="#DejaVuSans-6e" x="489.013672"/>
       <use xlink:href="#DejaVuSans-74" x="552.392578"/>
      </g>
     </g>
    </g>
    <g id="ytick_14">
     <g id="line2d_22">
      <g>
       <use xlink:href="#m9232d9afa2" x="97.85" y="149.978806" style="stroke: #000000; stroke-width: 0.8"/>
      </g>
     </g>
     <g id="text_23">
      <!-- customers -->
      <g transform="translate(38.551563 153.778025) scale(0.1 -0.1)">
       <use xlink:href="#DejaVuSans-63"/>
       <use xlink:href="#DejaVuSans-75" x="54.980469"/>
       <use xlink:href="#DejaVuSans-73" x="118.359375"/>
       <use xlink:href="#DejaVuSans-74" x="170.458984"/>
       <use xlink:href="#DejaVuSans-6f" x="209.667969"/>
       <use xlink:href="#DejaVuSans-6d" x="270.849609"/>
       <use xlink:href="#DejaVuSans-65" x="368.261719"/>
       <use xlink:href="#DejaVuSans-72" x="429.785156"/>
       <use xlink:href="#DejaVuSans-73" x="470.898438"/>
      </g>
     </g>
    </g>
    <g id="ytick_15">
     <g id="line2d_23">
      <g>
       <use xlink:href="#m9232d9afa2" x="97.85" y="133.321322" style="stroke: #000000; stroke-width: 0.8"/>
      </g>
     </g>
     <g id="text_24">
      <!-- reprint -->
      <g transform="translate(57.315625 137.120541) scale(0.1 -0.1)">
       <use xlink:href="#DejaVuSans-72"/>
       <use xlink:href="#DejaVuSans-65" x="38.863281"/>
       <use xlink:href="#DejaVuSans-70" x="100.386719"/>
       <use xlink:href="#DejaVuSans-72" x="163.863281"/>
       <use xlink:href="#DejaVuSans-69" x="204.976562"/>
       <use xlink:href="#DejaVuSans-6e" x="232.759766"/>
       <use xlink:href="#DejaVuSans-74" x="296.138672"/>
      </g>
     </g>
    </g>
    <g id="ytick_16">
     <g id="line2d_24">
      <g>
       <use xlink:href="#m9232d9afa2" x="97.85" y="116.663838" style="stroke: #000000; stroke-width: 0.8"/>
      </g>
     </g>
     <g id="text_25">
      <!-- manifest -->
      <g transform="translate(47.0625 120.463057) scale(0.1 -0.1)">
       <defs>
        <path id="DejaVuSans-66" d="M 2375 4863 
L 2375 4384 
L 1825 4384 
Q 1516 4384 1395 4259 
Q 1275 4134 1275 3809 
L 1275 3500 
L 2222 3500 
L 2222 3053 
L 1275 3053 
L 1275 0 
L 697 0 
L 697 3053 
L 147 3053 
L 147 3500 
L 697 3500 
L 697 3744 
Q 697 4328 969 4595 
Q 1241 4863 1831 4863 
L 2375 4863 
z
" transform="scale(0.015625)"/>
       </defs>
       <use xlink:href="#DejaVuSans-6d"/>
       <use xlink:href="#DejaVuSans-61" x="97.412109"/>
       <use xlink:href="#DejaVuSans-6e" x="158.691406"/>
       <use xlink:href="#DejaVuSans-69" x="222.070312"/>
       <use xlink:href="#DejaVuSans-66" x="249.853516"/>
       <use xlink:href="#DejaVuSans-65" x="285.058594"/>
       <use xlink:href="#DejaVuSans-73" x="346.582031"/>
       <use xlink:href="#DejaVuSans-74" x="398.681641"/>
      </g>
     </g>
    </g>
    <g id="ytick_17">
     <g id="line2d_25">
      <g>
       <use xlink:href="#m9232d9afa2" x="97.85" y="100.006354" style="stroke: #000000; stroke-width: 0.8"/>
      </g>
     </g>
     <g id="text_26">
      <!-- account -->
      <g transform="translate(51.010938 103.805573) scale(0.1 -0.1)">
       <use xlink:href="#DejaVuSans-61"/>
       <use xlink:href="#DejaVuSans-63" x="61.279297"/>
       <use xlink:href="#DejaVuSans-63" x="116.259766"/>
       <use xlink:href="#DejaVuSans-6f" x="171.240234"/>
       <use xlink:href="#DejaVuSans-75" x="232.421875"/>
       <use xlink:href="#DejaVuSans-6e" x="295.800781"/>
       <use xlink:href="#DejaVuSans-74" x="359.179688"/>
      </g>
     </g>
    </g>
    <g id="ytick_18">
     <g id="line2d_26">
      <g>
       <use xlink:href="#m9232d9afa2" x="97.85" y="83.348871" style="stroke: #000000; stroke-width: 0.8"/>
      </g>
     </g>
     <g id="text_27">
      <!-- inventory -->
      <g transform="translate(43.25625 87.148089) scale(0.1 -0.1)">
       <use xlink:href="#DejaVuSans-69"/>
       <use xlink:href="#DejaVuSans-6e" x="27.783203"/>
       <use xlink:href="#DejaVuSans-76" x="91.162109"/>
       <use xlink:href="#DejaVuSans-65" x="150.341797"/>
       <use xlink:href="#DejaVuSans-6e" x="211.865234"/>
       <use xlink:href="#DejaVuSans-74" x="275.244141"/>
       <use xlink:href="#DejaVuSans-6f" x="314.453125"/>
       <use xlink:href="#DejaVuSans-72" x="375.634766"/>
       <use xlink:href="#DejaVuSans-79" x="416.748047"/>
      </g>
     </g>
    </g>
    <g id="ytick_19">
     <g id="line2d_27">
      <g>
       <use xlink:href="#m9232d9afa2" x="97.85" y="66.691387" style="stroke: #000000; stroke-width: 0.8"/>
      </g>
     </g>
     <g id="text_28">
      <!-- data -->
      <g transform="translate(68.325 70.490605) scale(0.1 -0.1)">
       <use xlink:href="#DejaVuSans-64"/>
       <use xlink:href="#DejaVuSans-61" x="63.476562"/>
       <use xlink:href="#DejaVuSans-74" x="124.755859"/>
       <use xlink:href="#DejaVuSans-61" x="163.964844"/>
      </g>
     </g>
    </g>
    <g id="ytick_20">
     <g id="line2d_28">
      <g>
       <use xlink:href="#m9232d9afa2" x="97.85" y="50.033903" style="stroke: #000000; stroke-width: 0.8"/>
      </g>
     </g>
     <g id="text_29">
      <!-- medicine -->
      <g transform="translate(45.0625 53.833121) scale(0.1 -0.1)">
       <use xlink:href="#DejaVuSans-6d"/>
       <use xlink:href="#DejaVuSans-65" x="97.412109"/>
       <use xlink:href="#DejaVuSans-64" x="158.935547"/>
       <use xlink:href="#DejaVuSans-69" x="222.412109"/>
       <use xlink:href="#DejaVuSans-63" x="250.195312"/>
       <use xlink:href="#DejaVuSans-69" x="305.175781"/>
       <use xlink:href="#DejaVuSans-6e" x="332.958984"/>
       <use xlink:href="#DejaVuSans-65" x="396.337891"/>
      </g>
     </g>
    </g>
    <g id="text_30">
     <!-- Word -->
     <g transform="translate(18.8 221.131563) rotate(-90) scale(0.1 -0.1)">
      <defs>
       <path id="DejaVuSans-57" d="M 213 4666 
L 850 4666 
L 1831 722 
L 2809 4666 
L 3519 4666 
L 4500 722 
L 5478 4666 
L 6119 4666 
L 4947 0 
L 4153 0 
L 3169 4050 
L 2175 0 
L 1381 0 
L 213 4666 
z
" transform="scale(0.015625)"/>
      </defs>
      <use xlink:href="#DejaVuSans-57"/>
      <use xlink:href="#DejaVuSans-6f" x="93.001953"/>
      <use xlink:href="#DejaVuSans-72" x="154.183594"/>
      <use xlink:href="#DejaVuSans-64" x="193.546875"/>
     </g>
    </g>
   </g>
   <g id="patch_23">
    <path d="M 97.85 389.68 
L 97.85 26.88 
" style="fill: none; stroke: #000000; stroke-width: 0.8; stroke-linejoin: miter; stroke-linecap: square"/>
   </g>
   <g id="patch_24">
    <path d="M 562.05 389.68 
L 562.05 26.88 
" style="fill: none; stroke: #000000; stroke-width: 0.8; stroke-linejoin: miter; stroke-linecap: square"/>
   </g>
   <g id="patch_25">
    <path d="M 97.85 389.68 
L 562.05 389.68 
" style="fill: none; stroke: #000000; stroke-width: 0.8; stroke-linejoin: miter; stroke-linecap: square"/>
   </g>
   <g id="patch_26">
    <path d="M 97.85 26.88 
L 562.05 26.88 
" style="fill: none; stroke: #000000; stroke-width: 0.8; stroke-linejoin: miter; stroke-linecap: square"/>
   </g>
   <g id="text_31">
    <!-- Most relevant words – TN (Integrated Gradients) -->
    <g transform="translate(185.045312 20.88) scale(0.12 -0.12)">
     <defs>
      <path id="DejaVuSans-4d" d="M 628 4666 
L 1569 4666 
L 2759 1491 
L 3956 4666 
L 4897 4666 
L 4897 0 
L 4281 0 
L 4281 4097 
L 3078 897 
L 2444 897 
L 1241 4097 
L 1241 0 
L 628 0 
L 628 4666 
z
" transform="scale(0.015625)"/>
      <path id="DejaVuSans-77" d="M 269 3500 
L 844 3500 
L 1563 769 
L 2278 3500 
L 2956 3500 
L 3675 769 
L 4391 3500 
L 4966 3500 
L 4050 0 
L 3372 0 
L 2619 2869 
L 1863 0 
L 1184 0 
L 269 3500 
z
" transform="scale(0.015625)"/>
      <path id="DejaVuSans-2013" d="M 313 1978 
L 2888 1978 
L 2888 1528 
L 313 1528 
L 313 1978 
z
" transform="scale(0.015625)"/>
      <path id="DejaVuSans-54" d="M -19 4666 
L 3928 4666 
L 3928 4134 
L 2272 4134 
L 2272 0 
L 1638 0 
L 1638 4134 
L -19 4134 
L -19 4666 
z
" transform="scale(0.015625)"/>
      <path id="DejaVuSans-4e" d="M 628 4666 
L 1478 4666 
L 3547 763 
L 3547 4666 
L 4159 4666 
L 4159 0 
L 3309 0 
L 1241 3903 
L 1241 0 
L 628 0 
L 628 4666 
z
" transform="scale(0.015625)"/>
      <path id="DejaVuSans-28" d="M 1984 4856 
Q 1566 4138 1362 3434 
Q 1159 2731 1159 2009 
Q 1159 1288 1364 580 
Q 1569 -128 1984 -844 
L 1484 -844 
Q 1016 -109 783 600 
Q 550 1309 550 2009 
Q 550 2706 781 3412 
Q 1013 4119 1484 4856 
L 1984 4856 
z
" transform="scale(0.015625)"/>
      <path id="DejaVuSans-29" d="M 513 4856 
L 1013 4856 
Q 1481 4119 1714 3412 
Q 1947 2706 1947 2009 
Q 1947 1309 1714 600 
Q 1481 -109 1013 -844 
L 513 -844 
Q 928 -128 1133 580 
Q 1338 1288 1338 2009 
Q 1338 2731 1133 3434 
Q 928 4138 513 4856 
z
" transform="scale(0.015625)"/>
     </defs>
     <use xlink:href="#DejaVuSans-4d"/>
     <use xlink:href="#DejaVuSans-6f" x="86.279297"/>
     <use xlink:href="#DejaVuSans-73" x="147.460938"/>
     <use xlink:href="#DejaVuSans-74" x="199.560547"/>
     <use xlink:href="#DejaVuSans-20" x="238.769531"/>
     <use xlink:href="#DejaVuSans-72" x="270.556641"/>
     <use xlink:href="#DejaVuSans-65" x="309.419922"/>
     <use xlink:href="#DejaVuSans-6c" x="370.943359"/>
     <use xlink:href="#DejaVuSans-65" x="398.726562"/>
     <use xlink:href="#DejaVuSans-76" x="460.25"/>
     <use xlink:href="#DejaVuSans-61" x="519.429688"/>
     <use xlink:href="#DejaVuSans-6e" x="580.708984"/>
     <use xlink:href="#DejaVuSans-74" x="644.087891"/>
     <use xlink:href="#DejaVuSans-20" x="683.296875"/>
     <use xlink:href="#DejaVuSans-77" x="715.083984"/>
     <use xlink:href="#DejaVuSans-6f" x="796.871094"/>
     <use xlink:href="#DejaVuSans-72" x="858.052734"/>
     <use xlink:href="#DejaVuSans-64" x="897.416016"/>
     <use xlink:href="#DejaVuSans-73" x="960.892578"/>
     <use xlink:href="#DejaVuSans-20" x="1012.992188"/>
     <use xlink:href="#DejaVuSans-2013" x="1044.779297"/>
     <use xlink:href="#DejaVuSans-20" x="1094.779297"/>
     <use xlink:href="#DejaVuSans-54" x="1126.566406"/>
     <use xlink:href="#DejaVuSans-4e" x="1187.650391"/>
     <use xlink:href="#DejaVuSans-20" x="1262.455078"/>
     <use xlink:href="#DejaVuSans-28" x="1294.242188"/>
     <use xlink:href="#DejaVuSans-49" x="1333.255859"/>
     <use xlink:href="#DejaVuSans-6e" x="1362.748047"/>
     <use xlink:href="#DejaVuSans-74" x="1426.126953"/>
     <use xlink:href="#DejaVuSans-65" x="1465.335938"/>
     <use xlink:href="#DejaVuSans-67" x="1526.859375"/>
     <use xlink:href="#DejaVuSans-72" x="1590.335938"/>
     <use xlink:href="#DejaVuSans-61" x="1631.449219"/>
     <use xlink:href="#DejaVuSans-74" x="1692.728516"/>
     <use xlink:href="#DejaVuSans-65" x="1731.9375"/>
     <use xlink:href="#DejaVuSans-64" x="1793.460938"/>
     <use xlink:href="#DejaVuSans-20" x="1856.9375"/>
     <use xlink:href="#DejaVuSans-47" x="1888.724609"/>
     <use xlink:href="#DejaVuSans-72" x="1966.214844"/>
     <use xlink:href="#DejaVuSans-61" x="2007.328125"/>
     <use xlink:href="#DejaVuSans-64" x="2068.607422"/>
     <use xlink:href="#DejaVuSans-69" x="2132.083984"/>
     <use xlink:href="#DejaVuSans-65" x="2159.867188"/>
     <use xlink:href="#DejaVuSans-6e" x="2221.390625"/>
     <use xlink:href="#DejaVuSans-74" x="2284.769531"/>
     <use xlink:href="#DejaVuSans-73" x="2323.978516"/>
     <use xlink:href="#DejaVuSans-29" x="2376.078125"/>
    </g>
   </g>
  </g>
 </g>
 <defs>
  <clipPath id="p2eb81c0be7">
   <rect x="97.85" y="26.88" width="464.2" height="362.8"/>
  </clipPath>
 </defs>
</svg>
